PathFileType	4	(X/Y/Z)	Patient4_TMGait_0pt3_03_right_15.trc.trc
DataRate	CameraRate	NumFrames	NumMarkers	Units	OrigDataRate	OrigDataStartFrame	OrigNumFrames
50.179211469534	50.179211469534	5	33	mm	50.179211469534	18	       141
Frame#	Time	Sacral			L.Shoulder			Chest			R.Shoulder			Neck			R.ASIS			L.ASIS			R.Thigh.Superior			R.Thigh.Lateral			R.Thigh.Inferior			R.Patella			L.Thigh.Superior			L.Thigh.Lateral			L.Thigh.Inferior			L.Patella			L.Shank.Superior			L.Shank.Lateral			L.Shank.Inferior			R.Shank.Superior			R.Shank.Lateral			R.Shank.Inferior			R.Heel			R.Midfoot.Superior			R.Midfoot.Lateral			R.Toe			L.Heel			L.Midfoot.Lateral			L.Midfoot.Superior			L.Toe			L.Elbow			L.Wrist			R.Elbow			R.Wrist			
		X1	Y1	Z1	X2	Y2	Z2	X3	Y3	Z3	X4	Y4	Z4	X5	Y5	Z5	X6	Y6	Z6	X7	Y7	Z7	X8	Y8	Z8	X9	Y9	Z9	X10	Y10	Z10	X11	Y11	Z11	X12	Y12	Z12	X13	Y13	Z13	X14	Y14	Z14	X15	Y15	Z15	X16	Y16	Z16	X17	Y17	Z17	X18	Y18	Z18	X19	Y19	Z19	X20	Y20	Z20	X21	Y21	Z21	X22	Y22	Z22	X23	Y23	Z23	X24	Y24	Z24	X25	Y25	Z25	X26	Y26	Z26	X27	Y27	Z27	X28	Y28	Z28	X29	Y29	Z29	X30	Y30	Z30	X31	Y31	Z31	X32	Y32	Z32	X33	Y33	Z33	

18	28.598785714286	635.155309680158	1020.308308537502	394.446519642886	878.013851464975	1425.018219847950	214.822350636110	957.207594876730	1353.510681972590	386.141340857526	867.137188551002	1442.768020660263	549.303457800562	849.896358525319	1492.103178459107	375.836991252784	850.883475879404	942.177946475593	529.901175734761	856.787116882202	953.675857979775	256.070359834295	911.940035360800	764.992712556771	505.064414372470	863.448383284992	649.488459897666	581.398715214516	946.984207772441	602.959232004195	500.883296415724	973.600859965132	514.266333432474	524.451122719510	884.279267089424	739.616230783820	284.998403039660	789.008142562122	627.793712745415	227.801901182931	869.373799590318	547.717309886823	293.220337057472	865.415861850081	477.993705632104	302.667474254729	829.927184120487	408.211147911992	296.898282882387	728.522719524346	301.270746443101	251.379031719790	770.500986626937	187.306633164701	322.989780159296	940.059405674116	428.058610783281	535.739990558482	864.026374450093	328.921409314834	599.767610794094	915.963071706993	229.895977675057	551.681940826329	790.125489455842	59.035337133776	525.583523460055	961.182232061803	114.220358488311	568.425854386074	873.571023707637	47.200749957205	599.910744370092	1079.612197848845	63.615919250900	593.893639404008	633.331860969912	38.886080144275	377.229627585676	700.073800396127	34.958851537149	290.705354732398	786.650508833434	94.689125785451	310.882960574130	911.599632287387	40.054186143520	270.668892923495	934.657878752205	1105.511199980421	53.908378793220	1185.409276144097	1041.187462389797	70.004542969967	700.621513188990	1139.815568636886	661.152843494896	671.358204226187	880.845549909742	683.803470736990	
19	28.618714285714	635.194839768159	1019.958729770961	395.636652986934	878.997519359043	1424.817708882631	218.786020782979	956.665571822395	1353.529428299612	390.755270314098	865.320242054893	1443.053847563588	553.036705247672	849.173458542979	1491.894020343447	379.404077299947	849.772584535209	940.969983463786	532.859135946219	857.840788821112	953.941616300197	258.922957194884	909.074848837204	762.368672491865	508.334024779022	858.226784627591	646.974088215717	583.273661590653	942.087609533567	600.201212710035	503.345763743569	968.339104188552	513.717016859034	525.550489098384	882.773709541841	738.705104283131	287.265884099038	786.322905986783	628.023940621707	229.102060740117	865.273369580761	546.880341143291	294.601383284974	860.385686545211	477.312678410080	303.826258061134	824.816823389562	407.953454605596	297.717242216857	723.038811341638	301.447049301563	251.852986087089	764.705998839239	187.202867282615	323.252168145152	938.737416424869	427.145912883976	536.532617079154	867.549148599960	324.274529509719	600.911815048623	923.571724239254	227.540160085779	551.937075170038	804.422028209030	52.372102101250	526.372615947815	974.523264921010	112.318074524026	567.554301079067	889.001854504363	42.783802261890	599.866051915104	1094.826783026704	64.937374936937	591.622222707049	627.319585020278	38.850382768203	377.196080644967	694.017904910328	34.935185025361	290.708747859402	780.599315630319	94.679263332764	310.931879173810	905.540160264376	40.022700445050	270.693147481259	938.231228761680	1106.412944304007	57.409453077714	1190.454386104007	1050.390750867897	75.739890026735	694.299355396269	1143.029670813599	663.821924930851	664.071942502922	884.099102084328	685.979177497388	
20	28.638642857143	635.514196949352	1019.222319248198	397.353985492361	879.540201299591	1424.535076940004	223.189296671574	956.048353362034	1353.506893618560	395.643879024487	863.571568945161	1443.099131028345	557.229403277561	848.228165580602	1491.497483232997	383.468963604443	849.196607931330	939.487207998386	535.962732190484	859.103293802155	954.129342878354	261.982888541672	907.041762203373	759.487579974878	511.571416151485	853.690299738020	644.136760044047	584.943623497985	937.939905439709	597.281800977781	505.566771999125	963.544295598680	512.613387645937	526.289625313909	881.773478064317	737.714416544836	289.743740840320	784.242687148331	628.101259435564	230.637956755849	861.826435060578	545.940915856918	296.172113375746	856.056997318893	476.453273179197	305.153274856738	820.255816301396	407.513453114248	298.718897028785	717.940185747214	301.623139385185	252.450453178470	759.092039047003	187.012975864741	323.588598282149	937.169183864369	425.716762508119	537.032576722869	869.943451077435	320.056234147316	601.668425537849	928.949834269768	225.285563163399	551.825589613526	814.905636636721	47.540901157321	526.829201212411	984.297401891487	110.443999647402	566.271389268764	900.301641012542	39.614527171000	599.591480842560	1105.791028572843	65.209223579983	589.198367503890	621.299341043964	38.802553353799	377.169537853815	687.968483503286	34.908533744394	290.722104971545	774.555613177262	94.676013216080	311.000984499858	899.486095013720	39.986364675635	270.710816897304	941.179332946093	1106.988291511639	61.512532435623	1194.487034349379	1058.371196334843	81.420363517537	689.603020204473	1145.174960455010	667.020592789748	659.344728254017	886.104708815915	688.696903228235	
21	28.658571428571	636.094529096843	1018.158797225115	399.621099162672	879.665499889725	1424.231522037693	228.020653238009	955.388488269036	1353.478668324368	400.796011869287	861.912483445341	1442.916429136043	561.883378395528	847.096208623477	1490.953391145337	388.047902346665	849.157917229406	937.835488847437	539.202042986858	860.543920442007	954.254145520821	265.252270910252	905.949350073930	756.544350244237	514.723520268509	850.051961360811	641.161729650555	586.399583859368	934.746015871067	594.423265304324	507.516256656335	959.474924430167	511.100224496368	526.693846005477	881.276708092010	736.662977382404	292.442021768147	782.765781545232	628.032489593980	232.437724143643	859.054283555152	544.912168608444	297.955863154897	852.461874472534	475.424885866961	306.669764230647	816.261101687587	406.903705248003	299.923636513166	713.238823198478	301.823249686276	253.195267735376	753.664675782213	186.750732811401	324.004146606272	935.541552931492	423.854514999060	537.266693308261	871.273238284983	316.304849058012	602.064444490944	932.133077114678	223.062953476596	551.365094328914	821.462699490632	44.265108413051	526.941193486440	990.428118134217	108.540909449787	564.640849248342	907.381323768992	37.511170554361	599.133005232972	1112.555371604781	64.482880928493	586.794526498646	615.273285409812	38.757290774857	377.147568038403	681.932648189007	34.884327812232	290.744934897547	768.530028378626	94.682721885737	311.084871030230	893.444681880872	39.944666692775	270.716219068332	943.451349276406	1107.249162750030	66.228777153837	1197.547883972085	1065.078945224794	87.065140669292	686.508025769112	1146.205677347652	670.746341386227	656.934572648236	886.865932301320	691.996146586808	
22	28.678500000000	636.903640592003	1016.851368673034	402.443530890427	879.430663166208	1423.966815477065	233.253824582095	954.724509715393	1353.476542695362	406.195296737950	860.369317824015	1442.535816443326	566.981168371790	845.831648611056	1490.313849322497	393.129957206444	849.627003559283	936.136999570676	542.585477396746	862.119747631824	954.333650661726	268.742080797539	905.837944371330	753.741066454947	517.758604838691	847.484439967248	638.246837813306	587.672412487254	932.654996966771	591.834038551469	509.200176280763	956.342358428400	509.335727741988	526.827268477388	881.252174367370	735.578756312608	295.371504558726	781.855356097770	627.838173174493	234.523747811443	856.944979318563	543.817339913541	299.967618741158	849.597678827144	474.249614665694	308.384726008868	812.823118622599	406.152439730746	301.339477984389	708.924689623868	302.080265690050	254.107935640492	748.421773949379	186.440518775224	324.497668861171	934.051311355179	421.682608985677	537.292341022450	871.714713366336	313.051614807062	602.182767255473	933.321650301326	220.846165072083	550.612446338624	824.285074956895	42.234568580428	526.750026581385	993.104088564459	106.609879744204	562.772809635707	910.476508659667	36.269356609468	598.556763153201	1115.448549132770	62.924363385705	584.559061524078	609.245665868201	38.742773233994	377.124252530228	675.917952651926	34.873259191637	290.775115767349	762.536407774486	94.702170098798	311.174099288099	887.422857009195	39.895091178219	270.703192421972	945.006673651050	1107.220947415962	71.537340577634	1199.677263693521	1070.481354994371	92.698463233683	684.936394408063	1146.153086533656	674.983752933066	656.577666605368	886.472502495638	695.915632166252	
